<mxfile host="app.diagrams.net" modified="2023-04-04T09:27:54.554Z" agent="Mozilla/5.0 (Macintosh; Intel Mac OS X 10_15_7) AppleWebKit/605.1.15 (KHTML, like Gecko) Version/15.4 Safari/605.1.15" version="21.1.4" etag="_Kyzzzj7_2mVDhNYrubp" type="github">
  <diagram name="Page-1" id="77AZb1ZM3ekZEBrI-BiD">
    <mxGraphModel>
      <root>
        <mxCell id="0" />
        <mxCell id="1" parent="0" />
      </root>
    </mxGraphModel>
  </diagram>
</mxfile>
